<?xml version="1.0" encoding="utf-8"?>
<!-- Generator: Adobe Illustrator 23.0.1, SVG Export Plug-In . SVG Version: 6.00 Build 0)  -->
<svg version="1.1" id="Layer_1" xmlns="http://www.w3.org/2000/svg" xmlns:xlink="http://www.w3.org/1999/xlink" x="0px" y="0px"
	 viewBox="0 0 30 30" style="enable-background:new 0 0 30 30;" xml:space="preserve">
<style type="text/css">
	.st0{fill-rule:evenodd;clip-rule:evenodd;fill:#BEBEBE;}
	.st1{fill-rule:evenodd;clip-rule:evenodd;fill:#FFFFFF;}
	.st2{fill-rule:evenodd;clip-rule:evenodd;fill:#A2A2A2;}
	.st3{fill-rule:evenodd;clip-rule:evenodd;fill:#CFCFCF;}
	.st4{fill:#A2A2A2;}
</style>
<circle class="st0" cx="15" cy="15" r="14"/>
<circle class="st1" cx="15" cy="15" r="11"/>
<circle class="st2" cx="15" cy="15" r="11"/>
<g>
	<title>57 - Medal (Solid)</title>
	<desc>Created with Sketch.</desc>
	<g>
		<g>
			<path class="st3" d="M14.97,5.36c-5.28,0-9.57,4.29-9.57,9.57s4.29,9.57,9.57,9.57s9.57-4.29,9.57-9.57S20.25,5.36,14.97,5.36
				L14.97,5.36z"/>
		</g>
	</g>
</g>
<g id="w4F7rF_1_">
	<g>
		<path class="st4" d="M8.4,8.59c0.36,0.25,0.72,0.49,1.07,0.74c1.88,1.33,3.57,2.87,5.17,4.53c0.1,0.11,0.09,0.17-0.01,0.27
			c-1.59,1.66-3.15,3.34-4.76,4.99c-0.48,0.49-0.95,0.99-1.42,1.48c-0.05,0.05-0.09,0.11-0.17,0.14c-0.04-0.06,0.01-0.1,0.03-0.14
			c0.75-1.33,1.5-2.66,2.25-3.99c0.5-0.88,0.99-1.77,1.49-2.65c0.06-0.1,0.06-0.18-0.01-0.27c-1.11-1.73-2.29-3.42-3.64-4.98
			C8.39,8.68,8.38,8.65,8.36,8.63C8.37,8.62,8.38,8.6,8.4,8.59z"/>
		<path class="st4" d="M8.83,21.41c0.29-0.29,0.58-0.58,0.87-0.87c0.9-0.91,1.81-1.81,2.71-2.72c0.83-0.84,1.64-1.7,2.45-2.55
			c0.13-0.14,0.26-0.27,0.38-0.42c0.09-0.11,0.16-0.1,0.25,0c0.66,0.7,1.29,1.43,1.88,2.18c0.92,1.15,1.76,2.35,2.47,3.64
			c0.04,0.07,0.09,0.13,0.1,0.26c-0.19-0.17-0.35-0.31-0.51-0.46c-1.18-1.07-2.46-2.02-3.77-2.93c-0.11-0.08-0.19-0.07-0.3,0
			c-2.05,1.3-4.13,2.54-6.23,3.74c-0.1,0.05-0.19,0.11-0.29,0.16C8.85,21.43,8.84,21.42,8.83,21.41z"/>
		<path class="st4" d="M8.97,8.42C9.14,8.48,9.3,8.53,9.46,8.59c1.85,0.69,3.61,1.56,5.29,2.61c0.17,0.11,0.31,0.13,0.51,0.06
			c0.81-0.31,1.64-0.57,2.49-0.73c0.13-0.02,0.27-0.04,0.4-0.05c0.04,0,0.11-0.02,0.13,0.02c0.03,0.05-0.03,0.08-0.06,0.11
			c-0.5,0.53-1,1.05-1.5,1.58c-0.4,0.41-0.8,0.82-1.2,1.23c-0.17,0.17-0.17,0.17-0.34-0.01c-1.29-1.29-2.66-2.49-4.13-3.57
			c-0.64-0.47-1.29-0.91-1.97-1.31C9.03,8.51,8.98,8.5,8.97,8.42z"/>
		<path class="st4" d="M18.7,10.83c0.08,0.35,0.04,0.69,0,1.02c-0.09,0.82-0.27,1.63-0.55,2.41c-0.04,0.1-0.01,0.18,0.03,0.27
			c0.6,1.29,1.19,2.6,1.67,3.94c0.22,0.62,0.41,1.24,0.59,1.89c-0.09-0.02-0.1-0.08-0.12-0.13c-0.83-1.57-1.76-3.07-2.88-4.45
			c-0.41-0.51-0.84-1.01-1.28-1.51c-0.1-0.12-0.11-0.19,0-0.31c0.82-0.96,1.64-1.9,2.38-2.92C18.59,10.97,18.65,10.9,18.7,10.83z"/>
	</g>
</g>
</svg>
